<?xml version="1.0" encoding="UTF-8"?>
<svg xmlns="http://www.w3.org/2000/svg" viewBox="0 0 1272.40 134.40">
<g transform="translate(68.164,127.200) scale(0.058594,-0.058594)"><path d="M2239 1V493L2014 634V662L2239 802V1379H551L129 957V1ZM1803 563V324H551V563ZM1803 1056V676H1382L1184 831H551V1056Z" fill="#000000"/></g>
<g transform="translate(208.496,127.200) scale(0.058594,-0.058594)"><path d="M551 0V379H1817V0H2239V1378H551L129 956V0ZM551 703V1055H1817V492H1424L1198 703Z" fill="#000000"/></g>
<g transform="translate(350.469,127.200) scale(0.058594,-0.058594)"><path d="M610 1V1379H188V1Z" fill="#000000"/></g>
<g transform="translate(397.227,127.200) scale(0.058594,-0.058594)"><path d="M944 1055V0H1366V745L1056 970V1055H2210V1378H100V1055Z" fill="#000000"/></g>
<g transform="translate(532.461,127.200) scale(0.058594,-0.058594)"><path d="M551 0V590H1437L1803 379V0H2239V534L1901 703V731L2239 1026V1378H1803V801L1718 703H1340L1015 858H551V1378H438V1266L129 956V0Z" fill="#000000"/></g>
<g transform="translate(671.211,127.200) scale(0.058594,-0.058594)"><path d="" fill="#000000"/></g>
<g transform="translate(700.977,127.200) scale(0.058594,-0.058594)"><path d="M2239 0V112H1804L1465 323H551V1055H2239V1378H551L129 956V0Z" fill="#000000"/></g>
<g transform="translate(839.141,127.200) scale(0.058594,-0.058594)"><path d="M551 1V465H1507L1803 296V1H2239V437L1889 609L2239 915V1379H551L129 957V1ZM551 788V1056H1817V577H1410L1100 788Z" fill="#000000"/></g>
<g transform="translate(977.891,127.200) scale(0.058594,-0.058594)"><path d="M606 0V1055H1520L1731 872V0H2153V1055H3067L3278 872V0H3700V956L3278 1378H2198L1968 1169L1425 1166L1124 1378H184V0Z" fill="#000000"/></g>
</svg>
